<svg width="259" height="230" viewBox="0 0 259 230" fill="none" xmlns="http://www.w3.org/2000/svg">
<path d="M81.3409 138.908C84.1558 138.573 85.0625 138.09 85.2978 136.63M81.3409 138.908C81.4305 140.934 82.0478 142.037 83.8153 143.332M81.3409 138.908C69.5504 138.844 56.2502 138.098 44.4094 137.175M85.2978 136.63C85.0561 130.086 85.4897 126.388 88.1756 119.696C90.4469 114.972 96.2636 113.688 98.008 113.258C103.114 112.98 105.095 113.634 107.72 115.635L103.206 120.179M85.2978 136.63L90.214 133.362M44.4094 137.175C42.0285 140.223 39.8152 141.035 35.1765 141.78C25.876 141.881 23.6885 140.029 22.3465 135.111M44.4094 137.175C35.949 136.515 28.2336 135.766 22.3465 135.111M164.916 77.309C157.696 74.8935 151.986 74.0543 140.215 73.0504C129.427 72.4849 127.644 71.8801 105.802 72.06L99.5231 72.4239C88.242 73.5257 83.4531 75.3705 74.7459 78.4972M74.7459 78.4972L49.3256 93.8477M74.7459 78.4972C92.2464 76.1113 102.326 76.2838 120.431 77.309L104.003 95.135M49.3256 93.8477C39.7941 95.3581 34.4969 96.1388 22.4664 101.176C18.7839 103 16.9835 104.411 14.9123 108.604C23.4271 112.853 57.4162 112.156 59.6376 111.872C61.8593 111.587 84.9079 106.162 99.2071 101.176L104.003 95.135M49.3256 93.8477L104.003 95.135M14.6725 109.099C10.2239 115.074 9.58247 120.613 10.9553 133.461C10.4744 133.621 14.979 134.292 22.3465 135.111M141.295 75.3282C136.004 75.0306 132.756 75.2717 126.306 76.5167C119.969 80.5578 116.988 83.9178 111.917 90.3815C111.052 91.5673 110.71 92.429 110.958 95.135C111.85 96.6345 112.602 97.8203 114.195 100.285C115.049 101.642 115.553 103.774 115.871 107.685M141.295 75.3282C148.887 75.5641 152.61 75.9829 158.201 77.309C167.368 83.4681 160.302 76.875 163.683 81.3804M141.295 75.3282L142.08 78.4091M88.9713 118.357C95.695 116.902 99.4159 117.674 102.325 119.002L103.206 120.179M90.214 133.362C89.2617 123.664 92.7666 119.905 99.5668 119.696L103.206 120.179M90.214 133.362L103.206 120.179" stroke="white"/>
<path d="M139.447 82.4797C138.529 79.6102 137.774 77.4746 137.774 77.4746C137.182 75.5419 128.018 78.3494 126.622 79.4554C126.131 79.8446 120.196 84.6642 117.629 87.1799C115.505 89.0204 114.612 90.3425 113.552 93.2209C113.552 93.2209 114.631 94.8056 114.811 95.0532C114.991 95.3008 116.07 96.8852 116.07 96.8852L129.02 94.1123" stroke="white"/>
<path d="M158.278 81.436C156.534 79.3938 153.179 78.8468 146.407 78.0688L149.764 91.9336" stroke="white"/>
<path d="M146.972 74.655L56.2548 168.533L126.623 118.025L129.53 139.541L226.063 22.7315L144.351 96.641L146.972 74.655Z" fill="white" stroke="#FF0004" stroke-width="3"/>
<mask id="path-5-outside-1_2_30" maskUnits="userSpaceOnUse" x="128.706" y="96.2778" width="126" height="20" fill="black">
<rect fill="white" x="128.706" y="96.2778" width="126" height="20"/>
<path d="M136.636 114.602L136.203 112.463H132.944L132.511 114.602H129.706L132.49 101.113H136.76L139.4 114.602H136.636ZM134.532 103.618L133.728 108.108L133.274 110.401H135.852L135.378 108.108L134.574 103.618H134.532ZM144.893 112.366H146.625C146.928 112.058 147.141 111.75 147.265 111.442C147.402 111.12 147.471 110.651 147.471 110.035V101.113H150.296V109.071C150.296 109.726 150.276 110.24 150.234 110.613C150.207 110.973 150.125 111.416 149.987 111.943C149.753 112.88 149.107 113.767 148.048 114.602H143.47C142.411 113.793 141.765 112.906 141.531 111.943C141.325 111.159 141.222 110.202 141.222 109.071V101.113H144.047V110.035C144.047 110.651 144.109 111.12 144.233 111.442C144.37 111.75 144.59 112.058 144.893 112.366ZM155.336 103.425H152.222V101.113H161.255V103.425H158.141V114.602H155.336V103.425ZM169.275 101.113C170.237 101.845 170.952 102.828 171.42 104.061C171.887 105.294 172.121 106.566 172.121 107.877C172.121 109.174 171.894 110.407 171.441 111.576C170.987 112.745 170.265 113.754 169.275 114.602H165.026C164.036 113.754 163.315 112.745 162.861 111.576C162.407 110.407 162.18 109.174 162.18 107.877C162.18 106.566 162.414 105.294 162.882 104.061C163.349 102.828 164.064 101.845 165.026 101.113H169.275ZM166.408 112.366H167.893C168.237 111.994 168.526 111.39 168.759 110.555C169.007 109.707 169.131 108.814 169.131 107.877C169.131 106.939 169.014 106.059 168.78 105.236C168.546 104.401 168.257 103.798 167.914 103.425H166.408C166.065 103.798 165.769 104.401 165.521 105.236C165.288 106.059 165.171 106.939 165.171 107.877C165.171 108.814 165.288 109.707 165.521 110.555C165.769 111.39 166.065 111.994 166.408 112.366ZM178.683 114.602V101.113H186.087V103.425H181.508V106.643H185.592V108.879H181.508V112.366H186.169V114.602H178.683ZM188.591 114.602V101.113H191.417V112.366H195.706V114.602H188.591ZM197.935 101.113H205.34V103.425H200.761V106.643H204.845V108.879H200.761V112.366H205.422V114.602H197.935V101.113ZM199.585 98.858L200.245 100.534L204.143 99.4168L203.36 97.2778L199.585 98.858ZM210.174 103.425H207.06V101.113H216.094V103.425H212.979V114.602H210.174V103.425ZM218.115 101.113H223.601C224.467 101.382 225.203 101.883 225.808 102.616C226.426 103.335 226.736 104.222 226.736 105.275C226.736 106.997 226.007 108.262 224.55 109.071L226.633 114.602H223.745L221.992 109.688H220.899V114.602H218.115V101.113ZM220.899 103.425V107.53H222.673C222.906 107.478 223.161 107.26 223.436 106.874C223.725 106.476 223.869 106.014 223.869 105.487C223.869 104.96 223.745 104.498 223.498 104.1C223.264 103.701 223.03 103.476 222.797 103.425H220.899ZM229.051 114.602V101.113H231.876V114.602H229.051ZM238.69 112.366H242.321V114.602H237.081C236.174 113.805 235.487 112.797 235.019 111.576C234.552 110.356 234.318 109.103 234.318 107.819C234.318 106.521 234.579 105.275 235.102 104.08C235.624 102.885 236.401 101.896 237.432 101.113H242.321V103.425H238.69C238.319 103.823 237.996 104.466 237.721 105.352C237.46 106.239 237.329 107.086 237.329 107.896C237.329 108.705 237.46 109.553 237.721 110.439C237.996 111.326 238.319 111.968 238.69 112.366ZM250.803 114.602L250.371 112.463H247.112L246.678 114.602H243.875L246.659 101.113H250.928L253.568 114.602H250.803ZM248.7 103.618L247.897 108.108L247.443 110.401H250.021L249.547 108.108L248.741 103.618H248.7Z"/>
</mask>
<path d="M136.636 114.602L136.203 112.463H132.944L132.511 114.602H129.706L132.49 101.113H136.76L139.4 114.602H136.636ZM134.532 103.618L133.728 108.108L133.274 110.401H135.852L135.378 108.108L134.574 103.618H134.532ZM144.893 112.366H146.625C146.928 112.058 147.141 111.75 147.265 111.442C147.402 111.12 147.471 110.651 147.471 110.035V101.113H150.296V109.071C150.296 109.726 150.276 110.24 150.234 110.613C150.207 110.973 150.125 111.416 149.987 111.943C149.753 112.88 149.107 113.767 148.048 114.602H143.47C142.411 113.793 141.765 112.906 141.531 111.943C141.325 111.159 141.222 110.202 141.222 109.071V101.113H144.047V110.035C144.047 110.651 144.109 111.12 144.233 111.442C144.37 111.75 144.59 112.058 144.893 112.366ZM155.336 103.425H152.222V101.113H161.255V103.425H158.141V114.602H155.336V103.425ZM169.275 101.113C170.237 101.845 170.952 102.828 171.42 104.061C171.887 105.294 172.121 106.566 172.121 107.877C172.121 109.174 171.894 110.407 171.441 111.576C170.987 112.745 170.265 113.754 169.275 114.602H165.026C164.036 113.754 163.315 112.745 162.861 111.576C162.407 110.407 162.18 109.174 162.18 107.877C162.18 106.566 162.414 105.294 162.882 104.061C163.349 102.828 164.064 101.845 165.026 101.113H169.275ZM166.408 112.366H167.893C168.237 111.994 168.526 111.39 168.759 110.555C169.007 109.707 169.131 108.814 169.131 107.877C169.131 106.939 169.014 106.059 168.78 105.236C168.546 104.401 168.257 103.798 167.914 103.425H166.408C166.065 103.798 165.769 104.401 165.521 105.236C165.288 106.059 165.171 106.939 165.171 107.877C165.171 108.814 165.288 109.707 165.521 110.555C165.769 111.39 166.065 111.994 166.408 112.366ZM178.683 114.602V101.113H186.087V103.425H181.508V106.643H185.592V108.879H181.508V112.366H186.169V114.602H178.683ZM188.591 114.602V101.113H191.417V112.366H195.706V114.602H188.591ZM197.935 101.113H205.34V103.425H200.761V106.643H204.845V108.879H200.761V112.366H205.422V114.602H197.935V101.113ZM199.585 98.858L200.245 100.534L204.143 99.4168L203.36 97.2778L199.585 98.858ZM210.174 103.425H207.06V101.113H216.094V103.425H212.979V114.602H210.174V103.425ZM218.115 101.113H223.601C224.467 101.382 225.203 101.883 225.808 102.616C226.426 103.335 226.736 104.222 226.736 105.275C226.736 106.997 226.007 108.262 224.55 109.071L226.633 114.602H223.745L221.992 109.688H220.899V114.602H218.115V101.113ZM220.899 103.425V107.53H222.673C222.906 107.478 223.161 107.26 223.436 106.874C223.725 106.476 223.869 106.014 223.869 105.487C223.869 104.96 223.745 104.498 223.498 104.1C223.264 103.701 223.03 103.476 222.797 103.425H220.899ZM229.051 114.602V101.113H231.876V114.602H229.051ZM238.69 112.366H242.321V114.602H237.081C236.174 113.805 235.487 112.797 235.019 111.576C234.552 110.356 234.318 109.103 234.318 107.819C234.318 106.521 234.579 105.275 235.102 104.08C235.624 102.885 236.401 101.896 237.432 101.113H242.321V103.425H238.69C238.319 103.823 237.996 104.466 237.721 105.352C237.46 106.239 237.329 107.086 237.329 107.896C237.329 108.705 237.46 109.553 237.721 110.439C237.996 111.326 238.319 111.968 238.69 112.366ZM250.803 114.602L250.371 112.463H247.112L246.678 114.602H243.875L246.659 101.113H250.928L253.568 114.602H250.803ZM248.7 103.618L247.897 108.108L247.443 110.401H250.021L249.547 108.108L248.741 103.618H248.7Z" fill="white"/>
<path d="M136.636 114.602L136.203 112.463H132.944L132.511 114.602H129.706L132.49 101.113H136.76L139.4 114.602H136.636ZM134.532 103.618L133.728 108.108L133.274 110.401H135.852L135.378 108.108L134.574 103.618H134.532ZM144.893 112.366H146.625C146.928 112.058 147.141 111.75 147.265 111.442C147.402 111.12 147.471 110.651 147.471 110.035V101.113H150.296V109.071C150.296 109.726 150.276 110.24 150.234 110.613C150.207 110.973 150.125 111.416 149.987 111.943C149.753 112.88 149.107 113.767 148.048 114.602H143.47C142.411 113.793 141.765 112.906 141.531 111.943C141.325 111.159 141.222 110.202 141.222 109.071V101.113H144.047V110.035C144.047 110.651 144.109 111.12 144.233 111.442C144.37 111.75 144.59 112.058 144.893 112.366ZM155.336 103.425H152.222V101.113H161.255V103.425H158.141V114.602H155.336V103.425ZM169.275 101.113C170.237 101.845 170.952 102.828 171.42 104.061C171.887 105.294 172.121 106.566 172.121 107.877C172.121 109.174 171.894 110.407 171.441 111.576C170.987 112.745 170.265 113.754 169.275 114.602H165.026C164.036 113.754 163.315 112.745 162.861 111.576C162.407 110.407 162.18 109.174 162.18 107.877C162.18 106.566 162.414 105.294 162.882 104.061C163.349 102.828 164.064 101.845 165.026 101.113H169.275ZM166.408 112.366H167.893C168.237 111.994 168.526 111.39 168.759 110.555C169.007 109.707 169.131 108.814 169.131 107.877C169.131 106.939 169.014 106.059 168.78 105.236C168.546 104.401 168.257 103.798 167.914 103.425H166.408C166.065 103.798 165.769 104.401 165.521 105.236C165.288 106.059 165.171 106.939 165.171 107.877C165.171 108.814 165.288 109.707 165.521 110.555C165.769 111.39 166.065 111.994 166.408 112.366ZM178.683 114.602V101.113H186.087V103.425H181.508V106.643H185.592V108.879H181.508V112.366H186.169V114.602H178.683ZM188.591 114.602V101.113H191.417V112.366H195.706V114.602H188.591ZM197.935 101.113H205.34V103.425H200.761V106.643H204.845V108.879H200.761V112.366H205.422V114.602H197.935V101.113ZM199.585 98.858L200.245 100.534L204.143 99.4168L203.36 97.2778L199.585 98.858ZM210.174 103.425H207.06V101.113H216.094V103.425H212.979V114.602H210.174V103.425ZM218.115 101.113H223.601C224.467 101.382 225.203 101.883 225.808 102.616C226.426 103.335 226.736 104.222 226.736 105.275C226.736 106.997 226.007 108.262 224.55 109.071L226.633 114.602H223.745L221.992 109.688H220.899V114.602H218.115V101.113ZM220.899 103.425V107.53H222.673C222.906 107.478 223.161 107.26 223.436 106.874C223.725 106.476 223.869 106.014 223.869 105.487C223.869 104.96 223.745 104.498 223.498 104.1C223.264 103.701 223.03 103.476 222.797 103.425H220.899ZM229.051 114.602V101.113H231.876V114.602H229.051ZM238.69 112.366H242.321V114.602H237.081C236.174 113.805 235.487 112.797 235.019 111.576C234.552 110.356 234.318 109.103 234.318 107.819C234.318 106.521 234.579 105.275 235.102 104.08C235.624 102.885 236.401 101.896 237.432 101.113H242.321V103.425H238.69C238.319 103.823 237.996 104.466 237.721 105.352C237.46 106.239 237.329 107.086 237.329 107.896C237.329 108.705 237.46 109.553 237.721 110.439C237.996 111.326 238.319 111.968 238.69 112.366ZM250.803 114.602L250.371 112.463H247.112L246.678 114.602H243.875L246.659 101.113H250.928L253.568 114.602H250.803ZM248.7 103.618L247.897 108.108L247.443 110.401H250.021L249.547 108.108L248.741 103.618H248.7Z" stroke="black" stroke-width="1.4" mask="url(#path-5-outside-1_2_30)"/>
<path d="M136.597 127.652L136.694 127.732C138.735 129.424 139.75 131.724 139.75 134.592C139.75 137.44 138.803 139.831 136.905 141.738L136.802 141.84H130.14V127.652H136.597ZM145.004 127.652V141.84H141.478V127.652H145.004ZM149.843 127.652L149.894 127.939L151.029 134.182V134.185L151.447 136.6L151.866 134.185V134.182L153.001 127.939L153.052 127.652H156.749L156.657 128.076L153.728 141.565L153.669 141.84H149.226L149.167 141.565L146.238 128.076L146.146 127.652H149.843ZM161.417 127.652V141.84H157.891V127.652H161.417ZM181.879 127.652L181.972 127.723C182.992 128.499 183.744 129.537 184.233 130.826L184.402 131.305C184.771 132.428 184.957 133.581 184.957 134.765C184.957 135.937 184.778 137.061 184.418 138.135L184.253 138.592C183.777 139.817 183.02 140.873 181.988 141.756L181.89 141.84H177.383L177.285 141.756C176.317 140.928 175.592 139.948 175.113 138.82L175.02 138.592C174.55 137.382 174.316 136.105 174.316 134.765C174.316 133.412 174.557 132.098 175.04 130.826L175.135 130.587C175.623 129.408 176.345 128.45 177.301 127.723L177.394 127.652H181.879ZM179.056 130.664C178.801 130.989 178.558 131.499 178.343 132.225C178.119 133.012 178.007 133.858 178.007 134.765C178.007 135.671 178.119 136.531 178.343 137.344L178.435 137.638C178.627 138.21 178.837 138.626 179.056 138.906H180.217C180.469 138.582 180.705 138.074 180.908 137.349L180.909 137.346L180.993 137.039C181.175 136.316 181.266 135.558 181.266 134.765C181.266 133.857 181.153 133.009 180.929 132.221L180.928 132.219C180.726 131.495 180.49 130.987 180.237 130.664H179.056ZM133.645 138.906H134.981C135.276 138.514 135.528 137.955 135.719 137.204L135.72 137.198L135.801 136.886C135.973 136.16 136.059 135.44 136.059 134.727C136.059 132.836 135.694 131.504 135.027 130.664H133.645V138.906ZM166.829 141.84H163.53V127.652H166.181L166.277 127.847L169.359 134.138L169.286 133.373L169.284 133.356V127.652H172.583V141.84H170.101L170.004 141.652L166.778 135.415L166.828 136.327L166.829 136.336V141.84Z" fill="#FF0004" stroke="black" stroke-width="0.7"/>
</svg>
