<svg width="211" height="213" viewBox="0 0 211 213" fill="none" xmlns="http://www.w3.org/2000/svg">
<path fill-rule="evenodd" clip-rule="evenodd" d="M129.018 3H134.578C154.536 3 170.716 19.2445 170.716 39.2831C170.716 59.3218 154.536 75.5663 134.578 75.5663H129.018C110.108 75.5663 94.5904 60.983 93.0128 42.4067C92.977 41.9858 92.9485 41.5629 92.9271 41.138C92.8963 40.5236 92.8807 39.9052 92.8807 39.2831C92.8807 19.2445 109.06 3 129.018 3ZM133.651 16.0247H129.945C116.128 16.0247 104.927 27.2709 104.927 41.1438C104.927 55.0167 116.128 66.2629 129.945 66.2629H133.651C147.469 66.2629 158.67 55.0167 158.67 41.1438C158.67 27.2709 147.469 16.0247 133.651 16.0247Z" fill="url(#paint0_linear_18_75)"/>
<path fill-rule="evenodd" clip-rule="evenodd" d="M39.1376 92.7775H44.6972C64.6555 92.7775 80.8348 109.022 80.8348 129.061C80.8348 135.421 79.0653 141.539 76.2018 146.737C70.0438 157.915 58.3206 165.344 44.6972 165.344H39.1376C19.1794 165.344 3 149.099 3 129.061C3 109.022 19.1794 92.7775 39.1376 92.7775ZM68.789 128.13C68.789 114.257 57.5428 103.011 43.6699 103.011H40.165C26.2921 103.011 15.0459 114.257 15.0459 128.13V128.13C15.0459 142.003 26.2921 153.249 40.1649 153.249H43.6699C57.5428 153.249 68.789 142.003 68.789 128.13V128.13Z" fill="url(#paint1_linear_18_75)"/>
<path d="M93.0128 42.4067C92.977 41.9858 92.9485 41.5629 92.9271 41.138L91.9541 26.7236L24.312 94.6382H40.9908L93.0128 42.4067Z" fill="url(#paint2_linear_18_75)"/>
<path d="M145.697 80.218L131.335 79.2876L80.8349 129.991L76.2018 146.737L145.697 80.218Z" fill="url(#paint3_linear_18_75)"/>
<path fill-rule="evenodd" clip-rule="evenodd" d="M107.198 152.017C107.223 150.378 108.559 149.063 110.198 149.063H201.954C203.629 149.063 204.979 150.434 204.954 152.109L204.118 207.046C204.093 208.684 202.758 210 201.119 210H109.362C107.688 210 106.337 208.629 106.363 206.954L107.198 152.017ZM135.968 166.344C135.968 165.792 136.416 165.344 136.968 165.344H171.106C171.658 165.344 172.106 165.792 172.106 166.344V174.112C172.106 174.665 171.658 175.112 171.106 175.112H136.968C136.416 175.112 135.968 174.665 135.968 174.112V166.344Z" fill="url(#paint4_linear_18_75)"/>
<path d="M177.665 115.571L203.147 141.155H109.096L134.578 115.571H177.665Z" fill="url(#paint5_linear_18_75)"/>
<path d="M8.09636 110.919L24.312 94.6382M97.9309 20.7228L91.9541 26.7236M36.8211 98.8247L40.9908 94.6382M93.344 42.0742L93.0128 42.4067M161.085 63.9444L145.697 80.218M76.2018 146.737C79.0653 141.539 80.8348 135.421 80.8348 129.061C80.8348 109.022 64.6555 92.7775 44.6972 92.7775H39.1376C19.1794 92.7775 3 109.022 3 129.061C3 149.099 19.1794 165.344 39.1376 165.344H44.6972C58.3206 165.344 70.0438 157.915 76.2018 146.737ZM76.2018 146.737L145.697 80.218M76.2018 146.737L80.8349 129.991M78.0551 132.782L80.8349 129.991M135.041 75.5663L131.335 79.2876M93.0128 42.4067C94.5904 60.983 110.108 75.5663 129.018 75.5663H134.578C154.536 75.5663 170.716 59.3218 170.716 39.2831C170.716 19.2445 154.536 3 134.578 3H129.018C109.06 3 92.8807 19.2445 92.8807 39.2831C92.8807 39.9052 92.8963 40.5236 92.9271 41.138M93.0128 42.4067L40.9908 94.6382M93.0128 42.4067C92.977 41.9858 92.9485 41.5629 92.9271 41.138M93.0128 42.4067L92.9271 41.138M91.9541 26.7236L24.312 94.6382M91.9541 26.7236L92.9271 41.138M145.697 80.218L131.335 79.2876M131.335 79.2876L80.8349 129.991M40.9908 94.6382H24.312M129.945 16.0247H133.651C147.469 16.0247 158.67 27.2709 158.67 41.1438C158.67 55.0167 147.469 66.2629 133.651 66.2629H129.945C116.128 66.2629 104.927 55.0167 104.927 41.1438C104.927 27.2709 116.128 16.0247 129.945 16.0247ZM134.578 115.571H177.665L203.147 141.155H109.096L134.578 115.571ZM68.789 128.13V128.13C68.789 114.257 57.5428 103.011 43.6699 103.011H40.165C26.2921 103.011 15.0459 114.257 15.0459 128.13V128.13C15.0459 142.003 26.2921 153.249 40.1649 153.249H43.6699C57.5428 153.249 68.789 142.003 68.789 128.13ZM135.968 174.112V166.344C135.968 165.792 136.416 165.344 136.968 165.344H171.106C171.658 165.344 172.106 165.792 172.106 166.344V174.112C172.106 174.665 171.658 175.112 171.106 175.112H136.968C136.416 175.112 135.968 174.665 135.968 174.112ZM201.954 149.063H110.198C108.559 149.063 107.223 150.378 107.198 152.017L106.363 206.954C106.337 208.629 107.688 210 109.362 210H201.119C202.758 210 204.093 208.684 204.118 207.046L204.954 152.109C204.979 150.434 203.629 149.063 201.954 149.063Z" stroke="url(#paint6_linear_18_75)" stroke-width="6"/>
<defs>
<linearGradient id="paint0_linear_18_75" x1="104" y1="3" x2="104" y2="210" gradientUnits="userSpaceOnUse">
<stop stop-color="#BCEFFF"/>
<stop offset="1" stop-color="#FFC1C1"/>
</linearGradient>
<linearGradient id="paint1_linear_18_75" x1="104" y1="3" x2="104" y2="210" gradientUnits="userSpaceOnUse">
<stop stop-color="#BCEFFF"/>
<stop offset="1" stop-color="#FFC1C1"/>
</linearGradient>
<linearGradient id="paint2_linear_18_75" x1="104" y1="3" x2="104" y2="210" gradientUnits="userSpaceOnUse">
<stop stop-color="#BCEFFF"/>
<stop offset="1" stop-color="#FFC1C1"/>
</linearGradient>
<linearGradient id="paint3_linear_18_75" x1="104" y1="3" x2="104" y2="210" gradientUnits="userSpaceOnUse">
<stop stop-color="#BCEFFF"/>
<stop offset="1" stop-color="#FFC1C1"/>
</linearGradient>
<linearGradient id="paint4_linear_18_75" x1="104" y1="3" x2="104" y2="210" gradientUnits="userSpaceOnUse">
<stop stop-color="#BCEFFF"/>
<stop offset="1" stop-color="#FFC1C1"/>
</linearGradient>
<linearGradient id="paint5_linear_18_75" x1="104" y1="3" x2="104" y2="210" gradientUnits="userSpaceOnUse">
<stop stop-color="#BCEFFF"/>
<stop offset="1" stop-color="#FFC1C1"/>
</linearGradient>
<linearGradient id="paint6_linear_18_75" x1="104" y1="3" x2="104" y2="210" gradientUnits="userSpaceOnUse">
<stop stop-color="#BCEFFF"/>
<stop offset="1" stop-color="#FFC1C1"/>
</linearGradient>
</defs>
</svg>
