<svg width="212" height="211" viewBox="0 0 212 211" fill="none" xmlns="http://www.w3.org/2000/svg">
<path fill-rule="evenodd" clip-rule="evenodd" d="M14.4937 32.1572L7.1698 45.9433L15.7861 52.4055L14.4937 65.7609L2 68.7766V83.8552L13.2012 86.0092L18.371 97.2105L11.478 105.396L22.6792 119.613L31.2955 114.874L42.0659 121.767L39.0502 131.676L54.5596 138.569L61.4527 129.953H73.9464L78.2545 140.292L93.7639 136.415V125.214L108.843 116.597H114.012L126.937 101.088V94.6256L131.245 86.0092L142.446 83.8552V70.4998L131.245 65.7609L129.522 53.698L139.431 46.8049L131.245 32.1572L121.336 34.7421L111.858 26.5565L116.166 17.5094L103.242 8.46225L96.3488 15.3553L84.286 13.632L79.9778 2H65.7609L63.176 11.9088L50.2515 15.3553L42.9276 7.60062L28.7106 15.3553L33.8804 26.5565L26.5565 34.7421L14.4937 32.1572ZM38.0927 61.8366C36.3932 69.2428 35.971 76.9761 37.3884 84.4414C39.8464 97.3883 45.5805 104.756 59.9896 108.775C69.3391 111.383 79.4342 111.176 88.5537 107.852C98.3627 104.277 104.263 98.7918 108.209 89.3794C112.544 79.04 112.828 67.1419 109.167 56.5452C106.076 47.5971 100.574 41.5039 87.9737 37.6519C79.1518 34.9549 69.5951 34.8691 60.7453 37.473C45.5973 41.9301 40.8461 49.8377 38.0927 61.8366Z" fill="url(#paint0_linear_18_78)"/>
<path d="M173.896 127.798C183.31 143.905 182.033 150.739 173.896 160.971C162.443 171.706 156.207 173.355 145.462 167.434L135.122 177.342C148.095 186.343 155.672 189.061 170.449 184.235L194.144 208.792C194.586 208.826 195.017 208.856 195.437 208.883C207.235 209.617 210.625 207.081 208.792 196.298L185.528 173.034C196.977 155.907 201.114 145.695 191.99 123.059L173.896 127.798Z" fill="url(#paint1_linear_18_78)"/>
<path d="M136.415 160.971C126.506 147.786 124.873 139.926 131.629 128.377C133.76 124.735 136.755 121.655 140.274 119.327C149.265 113.379 156.446 112.084 168.295 114.874L176.481 105.396C156.421 98.0352 144.985 97.6941 127.114 113.996C125.256 115.691 123.604 117.641 122.258 119.765C108.412 141.631 114.752 152.295 126.937 170.449L136.415 160.971Z" fill="url(#paint2_linear_18_78)"/>
<path fill-rule="evenodd" clip-rule="evenodd" d="M14.4937 32.1572L7.1698 45.9433L15.7861 52.4055L14.4937 65.7609L2 68.7766V83.8552L13.2012 86.0092L18.371 97.2105L11.478 105.396L22.6792 119.613L31.2955 114.874L42.0659 121.767L39.0502 131.676L54.5596 138.569L61.4527 129.953H73.9464L78.2545 140.292L93.7639 136.415V125.214L108.843 116.597H114.012L126.937 101.088V94.6256L131.245 86.0092L142.446 83.8552V70.4998L131.245 65.7609L129.522 53.698L139.431 46.8049L131.245 32.1572L121.336 34.7421L111.858 26.5565L116.166 17.5094L103.242 8.46225L96.3488 15.3553L84.286 13.632L79.9778 2H65.7609L63.176 11.9088L50.2515 15.3553L42.9276 7.60062L28.7106 15.3553L33.8804 26.5565L26.5565 34.7421L14.4937 32.1572ZM38.0927 61.8366C36.3932 69.2428 35.971 76.9761 37.3884 84.4414C39.8464 97.3883 45.5805 104.756 59.9896 108.775C69.3391 111.383 79.4342 111.176 88.5537 107.852C98.3627 104.277 104.263 98.7918 108.209 89.3794C112.544 79.04 112.828 67.1419 109.167 56.5452C106.076 47.5971 100.574 41.5039 87.9737 37.6519C79.1518 34.9549 69.5951 34.8691 60.7453 37.473C45.5973 41.9301 40.8461 49.8377 38.0927 61.8366Z" stroke="url(#paint3_linear_18_78)" stroke-width="4"/>
<path d="M173.896 127.798C183.31 143.905 182.033 150.739 173.896 160.971C162.443 171.706 156.207 173.355 145.462 167.434L135.122 177.342C148.095 186.343 155.672 189.061 170.449 184.235L194.144 208.792C194.586 208.826 195.017 208.856 195.437 208.883C207.235 209.617 210.625 207.081 208.792 196.298L185.528 173.034C196.977 155.907 201.114 145.695 191.99 123.059L173.896 127.798Z" stroke="url(#paint4_linear_18_78)" stroke-width="4"/>
<path d="M136.415 160.971C126.506 147.786 124.873 139.926 131.629 128.377C133.76 124.735 136.755 121.655 140.274 119.327C149.265 113.379 156.446 112.084 168.295 114.874L176.481 105.396C156.421 98.0352 144.985 97.6941 127.114 113.996C125.256 115.691 123.604 117.641 122.258 119.765C108.412 141.631 114.752 152.295 126.937 170.449L136.415 160.971Z" stroke="url(#paint5_linear_18_78)" stroke-width="4"/>
<defs>
<linearGradient id="paint0_linear_18_78" x1="105.629" y1="2" x2="105.629" y2="209" gradientUnits="userSpaceOnUse">
<stop stop-color="#BCEFFF"/>
<stop offset="1" stop-color="#FFC1C1"/>
</linearGradient>
<linearGradient id="paint1_linear_18_78" x1="105.629" y1="2" x2="105.629" y2="209" gradientUnits="userSpaceOnUse">
<stop stop-color="#BCEFFF"/>
<stop offset="1" stop-color="#FFC1C1"/>
</linearGradient>
<linearGradient id="paint2_linear_18_78" x1="105.629" y1="2" x2="105.629" y2="209" gradientUnits="userSpaceOnUse">
<stop stop-color="#BCEFFF"/>
<stop offset="1" stop-color="#FFC1C1"/>
</linearGradient>
<linearGradient id="paint3_linear_18_78" x1="105.629" y1="2" x2="105.629" y2="209" gradientUnits="userSpaceOnUse">
<stop stop-color="#BCEFFF"/>
<stop offset="1" stop-color="#FFC1C1"/>
</linearGradient>
<linearGradient id="paint4_linear_18_78" x1="105.629" y1="2" x2="105.629" y2="209" gradientUnits="userSpaceOnUse">
<stop stop-color="#BCEFFF"/>
<stop offset="1" stop-color="#FFC1C1"/>
</linearGradient>
<linearGradient id="paint5_linear_18_78" x1="105.629" y1="2" x2="105.629" y2="209" gradientUnits="userSpaceOnUse">
<stop stop-color="#BCEFFF"/>
<stop offset="1" stop-color="#FFC1C1"/>
</linearGradient>
</defs>
</svg>
