<svg width="43" height="43" viewBox="0 0 43 43" fill="none" xmlns="http://www.w3.org/2000/svg">
<path d="M12.6632 0.300049C5.84564 0.300049 0.299988 5.85083 0.299988 12.6702V30.3368C0.299988 37.1544 5.85077 42.7 12.6701 42.7H30.3368C37.1543 42.7 42.7 37.1493 42.7 30.3299V12.6633C42.7 5.8457 37.1492 0.300049 30.3299 0.300049H12.6632ZM33.8667 7.36671C34.8419 7.36671 35.6333 8.15818 35.6333 9.13338C35.6333 10.1086 34.8419 10.9 33.8667 10.9C32.8915 10.9 32.1 10.1086 32.1 9.13338C32.1 8.15818 32.8915 7.36671 33.8667 7.36671ZM21.5 10.9C27.3459 10.9 32.1 15.6541 32.1 21.5C32.1 27.3459 27.3459 32.1 21.5 32.1C15.6541 32.1 10.9 27.3459 10.9 21.5C10.9 15.6541 15.6541 10.9 21.5 10.9ZM21.5 14.4334C19.6258 14.4334 17.8284 15.1779 16.5031 16.5032C15.1778 17.8284 14.4333 19.6259 14.4333 21.5C14.4333 23.3742 15.1778 25.1717 16.5031 26.4969C17.8284 27.8222 19.6258 28.5667 21.5 28.5667C23.3742 28.5667 25.1716 27.8222 26.4969 26.4969C27.8221 25.1717 28.5667 23.3742 28.5667 21.5C28.5667 19.6259 27.8221 17.8284 26.4969 16.5032C25.1716 15.1779 23.3742 14.4334 21.5 14.4334Z" fill="url(#paint0_linear_26_151)"/>
<defs>
<linearGradient id="paint0_linear_26_151" x1="21.5" y1="0.300049" x2="21.5" y2="42.7" gradientUnits="userSpaceOnUse">
<stop stop-color="#BCEFFF"/>
<stop offset="1" stop-color="#FFC1C1"/>
</linearGradient>
</defs>
</svg>
