<svg width="200" height="181" viewBox="0 0 200 181" fill="none" xmlns="http://www.w3.org/2000/svg">
<path fill-rule="evenodd" clip-rule="evenodd" d="M48.9462 23.6169C77.0514 -4.7983 122.949 -4.7983 151.054 23.6169V23.6169C178.727 51.5947 178.727 96.633 151.054 124.611V124.611C122.949 153.026 77.0514 153.026 48.9462 124.611V124.611C21.2735 96.633 21.2735 51.5947 48.9462 23.6169V23.6169ZM52.7792 47.9723C62.5438 36.039 71.0069 31.1515 91.474 25.6752C95.3875 39.4041 93.4592 46.2157 84.2597 57.0949C70.6011 60.2793 63.8398 57.6488 52.7792 47.9723ZM50.1558 67.5681C63.8875 69.9645 69.9694 72.8133 75.7338 82.6233C74.6275 93.9192 71.992 99.5567 63.2727 108.152C51.8563 93.0644 50.2577 84.0239 50.1558 67.5681ZM75.7338 118.625C81.2325 107.688 85.95 102.876 99.3442 98.3331C111.413 104.314 115.64 108.792 119.019 118.625C101.816 125.492 92.3862 124.423 75.7338 118.625ZM133.448 108.152C124.362 99.6113 122.017 94.0017 122.299 82.6233C129.517 71.3929 135.058 67.7543 148.532 67.5681C148.548 87.1651 145.188 96.0893 133.448 108.152ZM112.461 55.1311C106.522 44.009 104.482 37.4796 107.214 24.3661C130.449 29.8864 137.367 37.0324 144.597 53.1674C133.255 57.7723 126.546 59.2419 112.461 55.1311ZM92.8897 68.7499L93.6209 68.097C96.7787 65.277 101.631 65.554 104.446 68.7149C107.372 71.9995 106.924 77.064 103.468 79.7871L102.698 80.3939C99.6636 82.785 95.3162 82.5306 92.5823 79.802C89.4872 76.7129 89.6277 71.6629 92.8897 68.7499Z" fill="url(#paint0_linear_18_71)"/>
<path d="M197.757 161.904L180.615 144.808M197.757 161.904L180.615 179M197.757 161.904H156.986M2.70642 161.904L19.8486 179M2.70642 161.904L19.8486 144.808M2.70642 161.904H41.6239M41.6239 161.904V179M41.6239 161.904H69.8853M69.8853 161.904V179M69.8853 161.904H99.3442M99.3442 161.904V179M99.3442 161.904H125.945M125.945 161.904V179M125.945 161.904H156.986M156.986 161.904V179M91.474 25.6752C71.0069 31.1515 62.5438 36.039 52.7792 47.9723C63.8398 57.6488 70.6011 60.2793 84.2597 57.0949C93.4592 46.2157 95.3875 39.4041 91.474 25.6752ZM75.7338 82.6233C69.9694 72.8133 63.8875 69.9645 50.1558 67.5681C50.2577 84.0239 51.8563 93.0644 63.2727 108.152C71.992 99.5567 74.6275 93.9192 75.7338 82.6233ZM99.3442 98.3331C85.95 102.876 81.2325 107.688 75.7338 118.625C92.3862 124.423 101.816 125.492 119.019 118.625C115.64 108.792 111.413 104.314 99.3442 98.3331ZM122.299 82.6233C122.017 94.0017 124.362 99.6113 133.448 108.152C145.188 96.0893 148.548 87.1651 148.532 67.5681C135.058 67.7543 129.517 71.3929 122.299 82.6233ZM107.214 24.3661C104.482 37.4796 106.522 44.009 112.461 55.1311C126.546 59.2419 133.255 57.7723 144.597 53.1674C137.367 37.0324 130.449 29.8864 107.214 24.3661ZM92.5823 79.802C95.3162 82.5306 99.6636 82.785 102.698 80.3939L103.468 79.7871C106.924 77.064 107.372 71.9995 104.446 68.7149C101.631 65.554 96.7787 65.277 93.6209 68.097L92.8897 68.7499C89.6277 71.6629 89.4872 76.7129 92.5823 79.802ZM48.9462 124.611V124.611C77.0514 153.026 122.949 153.026 151.054 124.611V124.611C178.727 96.633 178.727 51.5947 151.054 23.6169V23.6169C122.949 -4.7983 77.0514 -4.7983 48.9462 23.6169V23.6169C21.2735 51.5947 21.2735 96.633 48.9462 124.611Z" stroke="url(#paint1_linear_18_71)" stroke-width="3"/>
<defs>
<linearGradient id="paint0_linear_18_71" x1="100" y1="-28" x2="100" y2="179" gradientUnits="userSpaceOnUse">
<stop stop-color="#BCEFFF"/>
<stop offset="1" stop-color="#FFC1C1"/>
</linearGradient>
<linearGradient id="paint1_linear_18_71" x1="100" y1="-28" x2="100" y2="179" gradientUnits="userSpaceOnUse">
<stop stop-color="#BCEFFF"/>
<stop offset="1" stop-color="#FFC1C1"/>
</linearGradient>
</defs>
</svg>
