<svg width="246" height="211" viewBox="0 0 246 211" fill="none" xmlns="http://www.w3.org/2000/svg">
<path d="M76.2495 55.7942C101.118 92.5796 103.241 100.087 103.244 107.826C99.7892 126.778 94.3874 134.097 73.8393 136.733C53.8286 131.64 49.6874 124.33 47.8091 107.826C48.2044 91.6564 60.9721 77.8029 76.2495 55.7942Z" fill="url(#paint0_linear_18_69)"/>
<path d="M175.068 145.405V156.486H184.227V145.405H175.068Z" fill="url(#paint1_linear_18_69)"/>
<path d="M165.427 148.296H115.777V209H244V148.296H193.868V160.822C193.868 162.951 192.141 164.676 190.011 164.676H169.284C167.154 164.676 165.427 162.951 165.427 160.822V148.296Z" fill="url(#paint2_linear_18_69)"/>
<path d="M193.868 136.251L243.036 136.733V119.535C243.036 117.326 241.245 115.535 239.036 115.535H204.473H156.75L119.824 115.101C117.597 115.074 115.777 116.873 115.777 119.1V136.733H165.427L167.161 134.133C167.887 133.045 169.099 132.381 170.406 132.354L189.049 131.965C190.53 131.935 191.908 132.726 192.628 134.021L193.868 136.251Z" fill="url(#paint3_linear_18_69)"/>
<path d="M141.325 98.6725V18.6972M99.8696 204.664C62.7052 207.084 29.5487 203.893 8.76372 194.998V18.6972M8.76372 18.6972H141.325M8.76372 18.6972L5.80593 16.9904C-0.393862 13.4129 0.82843 4.1251 7.74271 2.27343V2.27343C8.42046 2.09193 9.11907 2 9.8207 2H75.0444H140.268C140.97 2 141.668 2.09193 142.346 2.27343V2.27343C149.26 4.1251 150.483 13.4129 144.283 16.9904L141.325 18.6972M204.473 115.535H156.75M204.473 115.535C190.05 115.535 172.962 115.535 156.75 115.535M204.473 115.535V95.4459C204.473 93.2367 202.682 91.4459 200.473 91.4459H160.75C158.541 91.4459 156.75 93.2367 156.75 95.4459V115.535M204.473 115.535H239.036C241.245 115.535 243.036 117.326 243.036 119.535V136.733L193.868 136.251L192.628 134.021C191.908 132.726 190.53 131.935 189.049 131.965L170.406 132.354C169.099 132.381 167.887 133.045 167.161 134.133L165.427 136.733H115.777V119.1C115.777 116.873 117.597 115.074 119.824 115.101L156.75 115.535M76.2495 55.7942C101.118 92.5796 103.241 100.087 103.244 107.826C99.7892 126.778 94.3874 134.097 73.8393 136.733C53.8286 131.64 49.6874 124.33 47.8091 107.826C48.2044 91.6564 60.9721 77.8029 76.2495 55.7942ZM175.068 145.405V156.486H184.227V145.405H175.068ZM165.427 148.296H115.777V209H244V148.296H193.868V160.822C193.868 162.951 192.141 164.676 190.011 164.676H169.284C167.154 164.676 165.427 162.951 165.427 160.822V148.296Z" stroke="url(#paint4_linear_18_69)" stroke-width="3"/>
<defs>
<linearGradient id="paint0_linear_18_69" x1="116.5" y1="2" x2="116.5" y2="209" gradientUnits="userSpaceOnUse">
<stop stop-color="#BCEFFF"/>
<stop offset="1" stop-color="#FFC1C1"/>
</linearGradient>
<linearGradient id="paint1_linear_18_69" x1="116.5" y1="2" x2="116.5" y2="209" gradientUnits="userSpaceOnUse">
<stop stop-color="#BCEFFF"/>
<stop offset="1" stop-color="#FFC1C1"/>
</linearGradient>
<linearGradient id="paint2_linear_18_69" x1="116.5" y1="2" x2="116.5" y2="209" gradientUnits="userSpaceOnUse">
<stop stop-color="#BCEFFF"/>
<stop offset="1" stop-color="#FFC1C1"/>
</linearGradient>
<linearGradient id="paint3_linear_18_69" x1="116.5" y1="2" x2="116.5" y2="209" gradientUnits="userSpaceOnUse">
<stop stop-color="#BCEFFF"/>
<stop offset="1" stop-color="#FFC1C1"/>
</linearGradient>
<linearGradient id="paint4_linear_18_69" x1="116.5" y1="2" x2="116.5" y2="209" gradientUnits="userSpaceOnUse">
<stop stop-color="#BCEFFF"/>
<stop offset="1" stop-color="#FFC1C1"/>
</linearGradient>
</defs>
</svg>
