<svg width="43" height="44" viewBox="0 0 43 44" fill="none" xmlns="http://www.w3.org/2000/svg">
<path d="M21.5 0.626465C9.79235 0.626465 0.300049 10.1188 0.300049 21.8265C0.300049 25.8036 1.41719 29.5116 3.32271 32.6922L0.489827 43.0265L11.045 40.2557C14.1319 42.0107 17.6955 43.0265 21.5 43.0265C33.2078 43.0265 42.7001 33.5342 42.7001 21.8265C42.7001 10.1188 33.2078 0.626465 21.5 0.626465ZM14.2436 11.9373C14.5881 11.9373 14.9421 11.9352 15.2477 11.9511C15.6258 11.9599 16.0373 11.9876 16.4312 12.8586C16.8994 13.8938 17.9188 16.491 18.0495 16.7542C18.1803 17.0174 18.2729 17.3275 18.0909 17.672C17.9178 18.0254 17.8278 18.2392 17.5734 18.5519C17.3101 18.8558 17.0217 19.2332 16.7832 19.4629C16.52 19.7261 16.2481 20.0147 16.552 20.5394C16.8559 21.0641 17.9112 22.7842 19.4711 24.1728C21.4763 25.9642 23.1681 26.5147 23.6946 26.778C24.221 27.0412 24.5259 27.0002 24.8298 26.6468C25.1425 26.3023 26.1431 25.1203 26.4964 24.5938C26.8409 24.0673 27.1926 24.1584 27.6696 24.3315C28.1536 24.5047 30.7351 25.7763 31.2616 26.0396C31.788 26.3028 32.1332 26.4331 32.2657 26.6468C32.4017 26.8677 32.4018 27.919 31.9655 29.145C31.5291 30.3693 29.3863 31.5533 28.4252 31.6363C27.4553 31.7264 26.5502 32.0723 22.1211 30.3286C16.7787 28.2244 13.4096 22.7526 13.1463 22.3993C12.8831 22.0548 11.007 19.5544 11.007 16.975C11.007 14.3869 12.364 13.1193 12.8392 12.5929C13.3233 12.0664 13.8903 11.9373 14.2436 11.9373Z" fill="url(#paint0_linear_26_140)"/>
<defs>
<linearGradient id="paint0_linear_26_140" x1="21.5" y1="0.626465" x2="21.5" y2="43.0265" gradientUnits="userSpaceOnUse">
<stop stop-color="#BCEFFF"/>
<stop offset="1" stop-color="#FFC1C1"/>
</linearGradient>
</defs>
</svg>
